<svg width="96" height="48" viewBox="0 0 96 48" fill="none" xmlns="http://www.w3.org/2000/svg">
<g clip-path="url(#clip0_1149_37891)">
<path d="M10.6808 17.1667H4.24691V3.88889H10.6384C10.6384 3.88889 17.4109 3.59722 17.4109 10.1667C17.4109 16.5833 11.2028 17.1667 10.6808 17.1667ZM13.6861 19.6667C13.6861 19.6667 21.9259 18.0694 21.9259 9.65278C21.9259 1.23611 13.9683 0 11.5273 0H0V36.625H4.24691V20.8611H7.74603C9.72134 20.8611 11.6825 21.1667 14.4056 25.5278L20.9665 36.6111H26.0459L18.0459 23.7083C18.0459 23.7083 16.1129 20.4167 13.6861 19.6667Z" fill="#BC2228"/>
<path d="M32.9734 3.88889V0H28.7124V3.83333" fill="#919191"/>
<path d="M28.7124 5.25V36.7639H32.9734V5.29167" fill="#919191"/>
<path d="M84.0071 5.26389H79.7461V36.7222H84.0071V5.26389Z" fill="#919191"/>
<path d="M77.1357 5.19446H59.3721V9.45835H77.1357V5.19446Z" fill="#919191"/>
<path d="M77.1357 32.5H59.3721V36.7639H77.1357V32.5Z" fill="#919191"/>
<path d="M71.3509 19.0972H59.3721V23.375H71.3509V19.0972Z" fill="#919191"/>
<path d="M48.9878 5.25H44.6844L32.8467 21L44.6844 36.7222H48.9878L37.1641 21L48.9878 5.25Z" fill="#919191"/>
<path d="M52.5573 5.25L40.8748 21L52.5573 36.7222H56.8183L45.1217 21L56.8183 5.25H52.5573Z" fill="#BC2228"/>
<path d="M0.479677 46.4305L0.0563965 42.5139H0.733645L0.902957 44.2778L0.987613 45.2639C0.987613 45.3333 1.00172 45.4861 1.01583 45.7083C1.10049 45.4583 1.14282 45.2639 1.21336 45.125C1.2698 44.9861 1.34035 44.7917 1.46733 44.5555L2.44088 42.5139H3.20278L3.32976 44.4722C3.35798 44.7778 3.37209 45.1667 3.37209 45.6667C3.49908 45.3333 3.71072 44.875 4.00701 44.2917L4.88179 42.5139H5.57315L3.58373 46.4305H2.85005L2.70895 44.125C2.69484 43.9861 2.68073 43.7083 2.68073 43.2917C2.56786 43.5556 2.45499 43.8472 2.31389 44.1389L1.22747 46.4167H0.479677V46.4305Z" fill="#919191"/>
<path d="M5.38965 46.4306L6.56072 41.0139H7.26619L6.81469 43.0972C7.08277 42.8611 7.32263 42.6806 7.53427 42.5833C7.76002 42.4722 7.99988 42.4306 8.22563 42.4306C8.56425 42.4306 8.83233 42.5139 9.01575 42.6806C9.19917 42.8472 9.29794 43.0833 9.29794 43.3611C9.29794 43.5 9.25561 43.75 9.18506 44.125L8.67713 46.4444H7.97166L8.4937 44.0694C8.57836 43.7222 8.60658 43.5139 8.60658 43.4167C8.60658 43.2917 8.55014 43.1806 8.46549 43.0972C8.36672 43.0139 8.23974 42.9722 8.07042 42.9722C7.81646 42.9722 7.5766 43.0417 7.35085 43.1667C7.1251 43.2917 6.94168 43.4722 6.81469 43.6806C6.68771 43.9028 6.56072 44.2639 6.46196 44.75L6.09512 46.4306H5.38965Z" fill="#919191"/>
<path d="M10.7373 44.125H13.0089C13.023 44.0556 13.023 44.0139 13.023 43.9722C13.023 43.6389 12.9242 43.375 12.7549 43.2083C12.5856 43.0278 12.3599 42.9444 12.0777 42.9444C11.7814 42.9444 11.5274 43.0417 11.2734 43.2361C11.0336 43.4305 10.8643 43.7361 10.7373 44.125ZM12.7549 45.0972L13.4322 45.1667C13.3334 45.4861 13.1077 45.7917 12.7549 46.0833C12.4163 46.375 12.0071 46.5139 11.5133 46.5139C11.2029 46.5139 10.9348 46.4444 10.6808 46.3055C10.4269 46.1667 10.2435 45.9722 10.1165 45.7222C9.98949 45.4722 9.91895 45.1667 9.91895 44.8472C9.91895 44.4167 10.0318 44 10.2294 43.5972C10.441 43.1944 10.7091 42.8889 11.0336 42.6944C11.3581 42.5 11.7108 42.4028 12.0918 42.4028C12.5856 42.4028 12.9666 42.5417 13.2629 42.8333C13.5592 43.125 13.7002 43.5139 13.7002 44.0278C13.7002 44.2222 13.6861 44.4167 13.6438 44.625H10.6244C10.6103 44.6944 10.6103 44.7639 10.6103 44.8333C10.6103 45.1944 10.695 45.4861 10.8784 45.6805C11.0477 45.875 11.2593 45.9722 11.5133 45.9722C11.7532 45.9722 11.993 45.9028 12.2188 45.75C12.4445 45.5972 12.6279 45.375 12.7549 45.0972Z" fill="#919191"/>
<path d="M14.1375 46.4305L14.9981 42.5139H15.6048L15.4355 43.3194C15.6472 43.0139 15.8447 42.7917 16.0563 42.6528C16.2539 42.5139 16.4514 42.4305 16.663 42.4305C16.8041 42.4305 16.9734 42.4722 17.1851 42.5694L16.8888 43.1944C16.7759 43.1111 16.6348 43.0694 16.4937 43.0694C16.2539 43.0694 15.9999 43.1944 15.7459 43.4583C15.4919 43.7222 15.2803 44.1944 15.1392 44.8611L14.8006 46.4305H14.1375Z" fill="#919191"/>
<path d="M17.7353 44.125H20.0069C20.021 44.0556 20.021 44.0139 20.021 43.9722C20.021 43.6389 19.9223 43.375 19.753 43.2083C19.5837 43.0278 19.3579 42.9444 19.0757 42.9444C18.7794 42.9444 18.5255 43.0417 18.2715 43.2361C18.0457 43.4305 17.8482 43.7361 17.7353 44.125ZM19.753 45.0972L20.4302 45.1667C20.3315 45.4861 20.1057 45.7917 19.753 46.0833C19.4143 46.375 19.0052 46.5139 18.5113 46.5139C18.2009 46.5139 17.9329 46.4444 17.6789 46.3055C17.4249 46.1667 17.2415 45.9722 17.1145 45.7222C16.9875 45.4722 16.917 45.1667 16.917 44.8472C16.917 44.4167 17.0299 44 17.2274 43.5972C17.439 43.1944 17.7071 42.8889 18.0316 42.6944C18.3561 42.5 18.7089 42.4028 19.0898 42.4028C19.5837 42.4028 19.9646 42.5417 20.2609 42.8333C20.5572 43.125 20.6983 43.5139 20.6983 44.0278C20.6983 44.2222 20.6842 44.4167 20.6419 44.625H17.6366C17.6225 44.6944 17.6225 44.7639 17.6225 44.8333C17.6225 45.1944 17.7071 45.4861 17.8905 45.6805C18.0598 45.875 18.2715 45.9722 18.5255 45.9722C18.7653 45.9722 19.0052 45.9028 19.2309 45.75C19.4426 45.5972 19.6119 45.375 19.753 45.0972Z" fill="#919191"/>
<path d="M24.9453 45.8889L24.8324 46.4306C24.6772 46.4722 24.5079 46.5 24.3527 46.5C24.0705 46.5 23.8447 46.4306 23.6895 46.3056C23.5766 46.2083 23.5061 46.0695 23.5061 45.9028C23.5061 45.8195 23.5343 45.6111 23.6049 45.3056L24.1128 43.0278H23.5625L23.6754 42.5139H24.2116L24.4232 41.5556L25.2133 41.0972L24.9029 42.5278H25.5802L25.4673 43.0417H24.7759L24.3103 45.2083C24.2398 45.4861 24.2116 45.6528 24.2116 45.7083C24.2116 45.7917 24.2398 45.8472 24.2821 45.8889C24.3386 45.9306 24.4091 45.9445 24.522 45.9445C24.6913 45.9306 24.8183 45.9167 24.9453 45.8889Z" fill="#919191"/>
<path d="M25.4956 46.4306L26.6808 41.0139H27.3863L26.9348 43.0972C27.1887 42.8611 27.4286 42.6806 27.6543 42.5833C27.8801 42.4722 28.1058 42.4306 28.3457 42.4306C28.6843 42.4306 28.9383 42.5139 29.1358 42.6806C29.3192 42.8472 29.418 43.0833 29.418 43.3611C29.418 43.5 29.3757 43.75 29.291 44.125L28.7831 46.4444H28.0776L28.5997 44.0694C28.6843 43.7222 28.6984 43.5139 28.6984 43.4167C28.6984 43.2917 28.6561 43.1806 28.5714 43.0972C28.4727 43.0139 28.3457 42.9722 28.1764 42.9722C27.9224 42.9722 27.6826 43.0417 27.4568 43.1667C27.2169 43.2917 27.0476 43.4722 26.9065 43.6806C26.7937 43.9028 26.6667 44.2639 26.5538 44.75L26.2011 46.4306H25.4956Z" fill="#919191"/>
<path d="M30.8431 44.125H33.1288C33.1288 44.0556 33.1429 44.0139 33.1429 43.9722C33.1429 43.6389 33.0441 43.375 32.8748 43.2083C32.7055 43.0278 32.4797 42.9444 32.1975 42.9444C31.9013 42.9444 31.6332 43.0417 31.3933 43.2361C31.1535 43.4305 30.97 43.7361 30.8431 44.125ZM32.8748 45.0972L33.552 45.1667C33.4392 45.4861 33.2275 45.7917 32.8748 46.0833C32.5362 46.375 32.1129 46.5139 31.6332 46.5139C31.3228 46.5139 31.0547 46.4444 30.8007 46.3055C30.5468 46.1667 30.3492 45.9722 30.2222 45.7222C30.0953 45.4722 30.0388 45.1667 30.0388 44.8472C30.0388 44.4167 30.1376 44 30.3492 43.5972C30.5609 43.1944 30.8289 42.8889 31.1393 42.6944C31.4639 42.5 31.8307 42.4028 32.2117 42.4028C32.6914 42.4028 33.0864 42.5417 33.3827 42.8333C33.679 43.125 33.8201 43.5139 33.8201 44.0278C33.8201 44.2222 33.7919 44.4167 33.7637 44.625H30.7584C30.7443 44.6944 30.7443 44.7639 30.7443 44.8333C30.7443 45.1944 30.8289 45.4861 30.9983 45.6805C31.1817 45.875 31.3933 45.9722 31.6473 45.9722C31.8871 45.9722 32.127 45.9028 32.3528 45.75C32.5644 45.5972 32.7478 45.375 32.8748 45.0972Z" fill="#919191"/>
<path d="M37.291 44.7917C37.291 45.0694 37.3192 45.2778 37.3756 45.4444C37.4321 45.5972 37.5308 45.7361 37.6719 45.8333C37.7989 45.9306 37.9682 45.9861 38.1657 45.9861C38.4762 45.9861 38.7583 45.8333 39.0123 45.5139C39.3509 45.0972 39.5344 44.5833 39.5344 43.9583C39.5344 43.6528 39.4497 43.4028 39.2804 43.2361C39.1111 43.0556 38.8994 42.9722 38.6455 42.9722C38.4762 42.9722 38.321 43.0139 38.194 43.0833C38.0529 43.1528 37.9118 43.2778 37.7848 43.4444C37.6578 43.6111 37.5308 43.8333 37.4462 44.0972C37.3192 44.3611 37.291 44.5833 37.291 44.7917ZM39.1957 45.8611C38.8007 46.3056 38.3774 46.5139 37.9541 46.5139C37.5732 46.5139 37.2345 46.375 36.9806 46.0972C36.7125 45.8194 36.5996 45.4306 36.5996 44.9028C36.5996 44.4306 36.6984 43.9861 36.91 43.5972C37.1075 43.2083 37.3615 42.9028 37.6719 42.7083C37.9823 42.5139 38.2927 42.4167 38.6031 42.4167C39.1111 42.4167 39.492 42.6528 39.7601 43.125L40.2116 41.0139H40.9171L39.7319 46.4306H39.0829L39.1957 45.8611Z" fill="#919191"/>
<path d="M40.8042 46.4305L41.6649 42.5139H42.2716L42.1023 43.3194C42.3139 43.0139 42.5114 42.7917 42.7231 42.6528C42.9206 42.5139 43.1181 42.4305 43.3298 42.4305C43.4709 42.4305 43.6402 42.4722 43.8518 42.5694L43.5555 43.1944C43.4426 43.1111 43.3016 43.0694 43.1605 43.0694C42.9206 43.0694 42.6666 43.1944 42.4127 43.4583C42.1587 43.7222 41.9471 44.1944 41.806 44.8611L41.4673 46.4305H40.8042Z" fill="#919191"/>
<path d="M44.4162 44.125H46.7019V43.9722C46.7019 43.6389 46.6031 43.375 46.4338 43.2083C46.2645 43.0278 46.0388 42.9444 45.7566 42.9444C45.4603 42.9444 45.2063 43.0417 44.9523 43.2361C44.7125 43.4305 44.5291 43.7361 44.4162 44.125ZM46.4197 45.0972L47.097 45.1667C46.9982 45.4861 46.7725 45.7917 46.4338 46.0833C46.0811 46.375 45.6719 46.5139 45.1781 46.5139C44.8677 46.5139 44.5996 46.4444 44.3456 46.3055C44.0917 46.1667 43.9083 45.9722 43.7813 45.7222C43.6543 45.4722 43.5837 45.1667 43.5837 44.8472C43.5837 44.4167 43.6966 44 43.9083 43.5972C44.1058 43.1944 44.3739 42.8889 44.6984 42.6944C45.0229 42.5 45.3756 42.4028 45.7566 42.4028C46.2504 42.4028 46.6314 42.5417 46.9277 42.8333C47.224 43.125 47.365 43.5139 47.365 44.0278C47.365 44.2222 47.3509 44.4167 47.3086 44.625H44.3033C44.3033 44.6944 44.2892 44.7639 44.2892 44.8333C44.2892 45.1944 44.388 45.4861 44.5573 45.6805C44.7266 45.875 44.9382 45.9722 45.2063 45.9722C45.4462 45.9722 45.6719 45.9028 45.9118 45.75C46.1234 45.5972 46.3068 45.375 46.4197 45.0972Z" fill="#919191"/>
<path d="M50.8078 44.4444C50.7091 44.4861 50.6103 44.5139 50.4974 44.5278C50.3846 44.5417 50.187 44.5694 49.9472 44.5972C49.538 44.6389 49.2417 44.6805 49.0865 44.7222C48.9172 44.7778 48.7902 44.8611 48.7056 44.9722C48.6209 45.0833 48.5927 45.2222 48.5927 45.3611C48.5927 45.5417 48.6632 45.7083 48.7902 45.8194C48.9172 45.9444 49.1147 46 49.3546 46C49.5944 46 49.8061 45.9444 50.0318 45.8194C50.2435 45.7083 50.3987 45.5417 50.5398 45.3333C50.6526 45.125 50.7373 44.8333 50.8078 44.4444ZM50.5539 45.9444C50.314 46.1389 50.0742 46.2917 49.8625 46.3889C49.6368 46.4861 49.3969 46.5278 49.1429 46.5278C48.762 46.5278 48.4516 46.4167 48.2258 46.2083C47.986 46 47.8872 45.7222 47.8872 45.3889C47.8872 45.1667 47.9436 44.9722 48.0283 44.8055C48.1412 44.6389 48.2823 44.5 48.4516 44.4028C48.6209 44.3055 48.8184 44.2222 49.0724 44.1805C49.2276 44.1528 49.5239 44.125 49.9613 44.1111C50.3987 44.0972 50.7232 44.0555 50.9066 43.9722C50.963 43.7917 50.9913 43.6389 50.9913 43.5139C50.9913 43.3611 50.9348 43.2361 50.822 43.1528C50.6668 43.0278 50.4269 42.9722 50.1165 42.9722C49.8202 42.9722 49.5803 43.0278 49.3969 43.1528C49.1994 43.2778 49.0724 43.4583 48.9877 43.6805L48.2823 43.625C48.4234 43.2361 48.6491 42.9305 48.9595 42.7361C49.284 42.5278 49.6791 42.4305 50.1447 42.4305C50.6526 42.4305 51.0618 42.5417 51.344 42.7778C51.5697 42.9444 51.6685 43.1667 51.6685 43.4444C51.6685 43.6528 51.6403 43.9028 51.5697 44.1667L51.344 45.1389C51.2735 45.4444 51.2311 45.6944 51.2311 45.8889C51.2311 46.0139 51.2593 46.1944 51.3158 46.4167H50.6103C50.5962 46.3055 50.568 46.1389 50.5539 45.9444Z" fill="#919191"/>
<path d="M52.1763 46.4305L53.0369 42.5139H53.7283L53.6013 43.1528C53.8553 42.875 54.081 42.6805 54.2927 42.5833C54.4902 42.4722 54.716 42.4305 54.9558 42.4305C55.2098 42.4305 55.4214 42.5 55.5907 42.625C55.76 42.75 55.8729 42.9305 55.9152 43.1667C56.1269 42.9167 56.3385 42.7361 56.5784 42.6111C56.8041 42.4861 57.044 42.4305 57.298 42.4305C57.6366 42.4305 57.8906 42.5139 58.0599 42.6667C58.2292 42.8194 58.3279 43.0417 58.3279 43.3194C58.3279 43.4444 58.2856 43.6389 58.2292 43.9167L57.6789 46.4444H56.9876L57.5378 43.8472C57.5943 43.6389 57.6225 43.4861 57.6225 43.3889C57.6225 43.2639 57.5802 43.1667 57.4955 43.0833C57.4108 43.0139 57.298 42.9722 57.1428 42.9722C56.9452 42.9722 56.7336 43.0278 56.5078 43.1528C56.2962 43.2778 56.1269 43.4305 56.014 43.625C55.9011 43.8194 55.7883 44.125 55.7036 44.5278L55.2944 46.4305H54.589L55.1675 43.7778C55.2098 43.5972 55.2239 43.4722 55.2239 43.3889C55.2239 43.2639 55.1816 43.1528 55.111 43.0833C55.0264 43 54.9135 42.9722 54.7865 42.9722C54.589 42.9722 54.3914 43.0278 54.1798 43.1528C53.954 43.2778 53.7847 43.4444 53.6436 43.6528C53.5167 43.875 53.3897 44.1805 53.3191 44.5694L52.91 46.4167L52.1763 46.4305Z" fill="#919191"/>
<path d="M61.9401 44.8194V44.9444C61.9401 45.2778 62.0248 45.5417 62.1941 45.7083C62.3493 45.8889 62.5609 45.9722 62.8149 45.9722C63.0548 45.9722 63.2805 45.8889 63.4781 45.7222C63.6897 45.5556 63.8449 45.3056 63.986 44.9583C64.113 44.6111 64.1835 44.2917 64.1835 44C64.1835 43.6667 64.0989 43.4167 63.9296 43.2361C63.7744 43.0556 63.5627 42.9583 63.3229 42.9583C63.0689 42.9583 62.8431 43.0556 62.6315 43.2361C62.4199 43.4167 62.2505 43.7083 62.0953 44.0972C61.9966 44.3889 61.9401 44.625 61.9401 44.8194ZM60.9102 46.4306L62.0953 41.0139H62.8008L62.3775 42.9444C62.6033 42.75 62.8008 42.6111 62.9701 42.5278C63.1535 42.4444 63.337 42.4028 63.5345 42.4028C63.9013 42.4028 64.2259 42.5417 64.4939 42.8194C64.7479 43.0972 64.8749 43.4861 64.8749 44.0139C64.8749 44.3611 64.8184 44.6806 64.7197 44.9722C64.6209 45.2639 64.4939 45.5 64.3387 45.6944C64.1976 45.8889 64.0283 46.0417 63.8731 46.1667C63.7179 46.2778 63.5486 46.375 63.3793 46.4306C63.21 46.4861 63.0407 46.5139 62.8855 46.5139C62.6033 46.5139 62.3775 46.4444 62.1659 46.3056C61.9684 46.1667 61.799 45.9583 61.6862 45.6806L61.531 46.4306H60.9102Z" fill="#919191"/>
<path d="M66.2576 44.125H68.5433C68.5574 44.0556 68.5574 44.0139 68.5574 43.9722C68.5574 43.6389 68.4587 43.375 68.2893 43.2083C68.12 43.0278 67.8943 42.9444 67.6121 42.9444C67.3158 42.9444 67.0477 43.0417 66.8079 43.2361C66.568 43.4305 66.3846 43.7361 66.2576 44.125ZM68.2893 45.0972L68.9666 45.1667C68.8678 45.4861 68.6421 45.7917 68.2893 46.0833C67.9507 46.375 67.5416 46.5139 67.0477 46.5139C66.7373 46.5139 66.4692 46.4444 66.2153 46.3055C65.9613 46.1667 65.7779 45.9722 65.6509 45.7222C65.5239 45.4722 65.4534 45.1667 65.4534 44.8472C65.4534 44.4167 65.5662 44 65.7638 43.5972C65.9754 43.1944 66.2435 42.8889 66.568 42.6944C66.8925 42.5 67.2453 42.4028 67.6262 42.4028C68.12 42.4028 68.501 42.5417 68.7973 42.8333C69.0936 43.125 69.2347 43.5139 69.2347 44.0278C69.2347 44.2222 69.2065 44.4167 69.1782 44.625H66.1729C66.1588 44.6944 66.1588 44.7639 66.1588 44.8333C66.1588 45.1944 66.2435 45.4861 66.4269 45.6805C66.5962 45.875 66.8079 45.9722 67.0618 45.9722C67.3017 45.9722 67.5416 45.9028 67.7673 45.75C67.9931 45.5972 68.1624 45.375 68.2893 45.0972Z" fill="#919191"/>
<path d="M70.5044 44.6944C70.5044 44.9583 70.5326 45.1667 70.589 45.3055C70.6737 45.5 70.7724 45.6389 70.9135 45.7361C71.0405 45.8333 71.2098 45.8889 71.3791 45.8889C71.619 45.8889 71.8448 45.8055 72.0705 45.6528C72.2963 45.5 72.4797 45.2639 72.6208 44.9444C72.7619 44.625 72.8324 44.3194 72.8324 44.0278C72.8324 43.7083 72.7336 43.4444 72.5502 43.25C72.3668 43.0555 72.1269 42.9722 71.8589 42.9722C71.6896 42.9722 71.5343 43.0139 71.365 43.0972C71.2098 43.1805 71.0546 43.3194 70.9135 43.5C70.7866 43.6805 70.6737 43.8889 70.6031 44.1389C70.5326 44.375 70.5044 44.5694 70.5044 44.6944ZM69.6296 46.7917L70.3351 46.8472C70.3351 47 70.3492 47.1111 70.3915 47.1944C70.4479 47.2778 70.5044 47.3333 70.6031 47.375C70.7301 47.4305 70.8994 47.4583 71.097 47.4583C71.5202 47.4583 71.8306 47.3611 72 47.1389C72.1269 47 72.2398 46.6944 72.3386 46.2222L72.4091 45.9028C72.0564 46.25 71.6613 46.4305 71.2522 46.4305C70.843 46.4305 70.4903 46.2778 70.2222 45.9861C69.94 45.6944 69.7989 45.2778 69.7989 44.75C69.7989 44.3055 69.9118 43.9028 70.1234 43.5278C70.3492 43.1528 70.6031 42.875 70.8994 42.6944C71.2098 42.5 71.5061 42.4167 71.8448 42.4167C72.3809 42.4167 72.7901 42.6667 73.0723 43.1528L73.1993 42.5139H73.8342L73.0158 46.3055C72.9312 46.7222 72.8183 47.0417 72.6772 47.2778C72.5361 47.5139 72.3245 47.6944 72.0705 47.8194C71.8024 47.9444 71.5202 48.0139 71.1675 48.0139C70.8289 48.0139 70.5608 47.9722 70.3209 47.8889C70.0811 47.8055 69.9118 47.6944 69.7848 47.5278C69.6719 47.375 69.6155 47.1944 69.6155 46.9861C69.6155 46.9305 69.6155 46.8611 69.6296 46.7917Z" fill="#919191"/>
<path d="M75.0335 41.7778L75.1887 41.0278H75.8941L75.7248 41.7778H75.0335ZM74.0176 46.4305L74.8783 42.5139H75.5696L74.723 46.4305H74.0176Z" fill="#919191"/>
<path d="M75.7812 46.4305L76.6419 42.5139H77.2627L77.1216 43.1944C77.4038 42.9305 77.6578 42.7361 77.8835 42.6111C78.1234 42.4861 78.3633 42.4305 78.6172 42.4305C78.9417 42.4305 79.2098 42.5139 79.3932 42.6944C79.5767 42.8611 79.6754 43.0972 79.6754 43.3889C79.6754 43.5278 79.6472 43.7639 79.5767 44.0694L79.0546 46.4444H78.3492L78.8853 43.9583C78.9417 43.7222 78.97 43.5417 78.97 43.4167C78.97 43.2917 78.9276 43.1805 78.843 43.0972C78.7442 43.0139 78.6031 42.9722 78.4338 42.9722C78.0811 42.9722 77.7566 43.0972 77.4744 43.3472C77.1922 43.5972 76.9947 44.0139 76.8677 44.6111L76.4726 46.4305H75.7812Z" fill="#919191"/>
<path d="M80.2398 45.0972L80.9312 45.0555C80.9312 45.25 80.9594 45.4167 81.0299 45.5417C81.1005 45.6805 81.1993 45.7917 81.3686 45.875C81.5238 45.9583 81.7213 46 81.933 46C82.2434 46 82.4691 45.9444 82.6243 45.8194C82.7795 45.6944 82.8642 45.5555 82.8642 45.4028C82.8642 45.2917 82.8077 45.1806 82.7231 45.0694C82.6243 44.9722 82.3986 44.8333 82.0317 44.6806C81.6649 44.5278 81.4391 44.4167 81.3262 44.3611C81.1569 44.2639 81.0158 44.1389 80.9453 44C80.8465 43.8611 80.8183 43.7083 80.8183 43.5278C80.8183 43.2222 80.9312 42.9583 81.1993 42.7222C81.4532 42.5 81.806 42.3889 82.2716 42.3889C82.7936 42.3889 83.1746 42.5 83.4427 42.7361C83.7107 42.9722 83.8518 43.2639 83.8659 43.6389L83.1746 43.6806C83.1746 43.4444 83.0758 43.25 82.9206 43.125C82.7513 42.9861 82.5255 42.9167 82.2151 42.9167C81.9753 42.9167 81.7919 42.9722 81.6649 43.0694C81.5379 43.1806 81.4673 43.2917 81.4673 43.4167C81.4673 43.5417 81.5238 43.6528 81.6366 43.7361C81.7213 43.8055 81.9188 43.9028 82.2292 44.0278C82.7654 44.25 83.0899 44.4305 83.231 44.5555C83.4427 44.7639 83.5555 45.0139 83.5555 45.3056C83.5555 45.5 83.485 45.6944 83.3721 45.875C83.2451 46.0555 83.0476 46.2083 82.8077 46.3194C82.5397 46.4306 82.2575 46.4861 81.9047 46.4861C81.425 46.4861 81.03 46.375 80.7054 46.1528C80.3668 45.9583 80.2116 45.5972 80.2398 45.0972Z" fill="#919191"/>
<path d="M88.4373 9.45834C88.4373 11.4028 90.0598 12.9861 92.0351 12.9722C94.0104 12.9722 95.6612 11.4861 95.633 9.33334C95.6048 7.72222 94.3491 5.98611 92.0634 5.94445C90.0739 5.91667 88.4373 7.51389 88.4373 9.45834ZM92.0351 5.61111C94.2362 5.61111 95.9999 7.33334 95.9999 9.5C95.9716 11.6806 94.1656 13.3194 92.0351 13.3194C89.8764 13.3056 88.0986 11.5972 88.0986 9.45834C88.0986 7.33334 89.8623 5.61111 92.0351 5.61111Z" fill="#919191"/>
<path d="M92.3032 9.375C92.0352 9.36111 91.753 9.41666 91.4426 9.36111C91.4426 9.04166 91.4708 8.73611 91.4426 8.43055C91.4143 8.20833 91.499 8.13889 91.7106 8.15277C91.8941 8.16666 92.1057 8.15277 92.2891 8.18055C92.5995 8.23611 92.783 8.38889 92.8112 8.63889C92.8394 8.97222 92.7265 9.18055 92.4161 9.30555C92.402 9.34722 92.3315 9.36111 92.3032 9.375C92.3032 9.41666 92.3315 9.45833 92.3315 9.51389C92.3315 9.47222 92.3032 9.43055 92.3032 9.375ZM91.3297 9.22222C91.3579 9.27777 91.3579 9.36111 91.4567 9.36111C91.3579 9.375 91.3579 9.29166 91.3297 9.22222ZM91.245 10.375C91.2733 10.375 91.2733 10.375 91.2733 10.3889C91.2733 10.375 91.2733 10.375 91.245 10.375ZM91.1463 9.38888C91.1463 9.38888 91.1463 9.375 91.1745 9.36111C91.1463 9.375 91.1463 9.38888 91.1463 9.38888C91.1463 9.40277 91.1463 9.41666 91.1181 9.43055C91.1463 9.43055 91.1463 9.41666 91.1463 9.38888ZM91.3297 9.20833C91.3297 9.20833 91.3297 9.19444 91.3015 9.19444C91.3297 9.19444 91.3297 9.20833 91.3297 9.20833ZM92.9805 10.5278C92.8535 10.2361 92.6701 9.97222 92.4867 9.73611V9.68055C92.6419 9.61111 92.8253 9.59722 92.9099 9.40277C92.9382 9.43055 92.9664 9.43055 93.0087 9.40277C93.3191 9.125 93.3191 8.44444 93.0369 8.15277C93.0087 8.125 92.9523 8.09722 92.9099 8.125C92.9664 8.01389 92.8817 8.01388 92.783 8C92.6842 7.93055 92.5713 7.90277 92.4443 7.875C92.0493 7.80555 91.6542 7.86111 91.2309 7.83333C91.0757 7.81944 91.0193 7.875 91.0193 8.05555V9.52777C91.0475 9.51388 91.0757 9.5 91.1181 9.48611V9.45833V9.48611C91.0898 9.5 91.0616 9.51388 91.0193 9.52777C91.0193 9.81944 91.0193 10.0972 91.0475 10.3889C91.0193 10.5417 91.0475 10.6944 91.0193 10.8611C91.0193 11.0278 91.0193 11.1389 91.2591 11.1389C91.4708 11.1389 91.4426 11.0139 91.4426 10.875C91.4426 10.7778 91.4426 10.6667 91.4144 10.5694C91.4708 10.4722 91.4426 10.3611 91.4426 10.2639C91.4708 10.0833 91.3861 9.90277 91.499 9.73611C91.5978 9.75 91.6542 9.76388 91.7106 9.75C91.9505 9.70833 92.1057 9.81944 92.2327 10.0278C92.3597 10.3194 92.5713 10.5833 92.6842 10.875C92.8394 11.1667 93.0228 11.1389 93.3191 11.0972C93.1921 10.8611 93.0651 10.6944 92.9805 10.5278Z" fill="#919191"/>
</g>
<defs>
<clipPath id="clip0_1149_37891">
<rect width="96" height="48" fill="white"/>
</clipPath>
</defs>
</svg>
